# xmcd
#
# Track frame offsets:
#	150
#	14880
#	31024
#	46553
#	62993
#	79770
#	100123
#	116745
#	131923
#	145217
#	163452
#
# Disc length: 2434 seconds
#
# Revision: 1
# Processed by: cddbd v1.5.2PL0 Copyright (c) Steve Scherf et al.
# Submitted via: audiograbber 1.83.01
#
DISCID=9909800b
DTITLE=Josh Turner - Haywire
DYEAR=2010
DGENRE=Country
TTITLE0=Why Don't We Just Dance
TTITLE1=I Wouldn't Be A Man
TTITLE2=Haywire
TTITLE3=Your Smile
TTITLE4=Lovin' You On My Mind
TTITLE5=As Fast As I Could
TTITLE6=I'll Be There
TTITLE7=All Over Me
TTITLE8=Eye Candy
TTITLE9=Friday Paycheck
TTITLE10=The Answer
EXTD=
EXTT0=
EXTT1=
EXTT2=
EXTT3=
EXTT4=
EXTT5=
EXTT6=
EXTT7=
EXTT8=
EXTT9=
EXTT10=
PLAYORDER=
